<mxfile host="app.diagrams.net" modified="2022-05-10T13:56:17.491Z" agent="5.0 (Macintosh; Intel Mac OS X 10_15_7) AppleWebKit/537.36 (KHTML, like Gecko) Chrome/101.0.4951.54 Safari/537.36" etag="7ga7vQSUQmz_1oqKB6vm" version="17.5.0" type="github">
  <diagram id="xUJiRP_OMW59JbWLwC5A" name="第 1 页">
    <mxGraphModel dx="889" dy="588" grid="1" gridSize="10" guides="1" tooltips="1" connect="1" arrows="1" fold="1" page="1" pageScale="1" pageWidth="827" pageHeight="1169" math="0" shadow="0">
      <root>
        <mxCell id="0" />
        <mxCell id="1" parent="0" />
        <mxCell id="pJOVx2OP605_xHO01Uwe-5" style="edgeStyle=orthogonalEdgeStyle;rounded=0;sketch=1;orthogonalLoop=1;jettySize=auto;html=1;exitX=0.5;exitY=1;exitDx=0;exitDy=0;entryX=0.5;entryY=0;entryDx=0;entryDy=0;curved=1;" edge="1" parent="1" source="pJOVx2OP605_xHO01Uwe-2" target="pJOVx2OP605_xHO01Uwe-3">
          <mxGeometry relative="1" as="geometry" />
        </mxCell>
        <mxCell id="pJOVx2OP605_xHO01Uwe-2" value="2141a&#39;d" style="rounded=0;whiteSpace=wrap;html=1;sketch=1;" vertex="1" parent="1">
          <mxGeometry x="130" y="150" width="120" height="40" as="geometry" />
        </mxCell>
        <mxCell id="pJOVx2OP605_xHO01Uwe-3" value="" style="rounded=0;whiteSpace=wrap;html=1;sketch=1;" vertex="1" parent="1">
          <mxGeometry x="135" y="250" width="110" height="40" as="geometry" />
        </mxCell>
      </root>
    </mxGraphModel>
  </diagram>
</mxfile>
